<svg id="Layer_1" data-name="Layer 1" xmlns="http://www.w3.org/2000/svg" viewBox="0 0 1500 759.33"><defs><style>.cls-1,.cls-2{fill:#202322;}.cls-1,.cls-3{fill-rule:evenodd;}.cls-3,.cls-4{fill:#212222;}.cls-5,.cls-8{fill:none;stroke-miterlimit:10;stroke-width:0.5px;}.cls-5{stroke:#1a1a1a;}.cls-10,.cls-6{fill:#1a1a1a;}.cls-7{opacity:0.5;}.cls-8{stroke:#e99915;}.cls-9{font-size:30px;fill:#3e3a39;}.cls-10,.cls-9{font-family:Roboto-Light, Roboto;}.cls-10{font-size:20px;}.cls-11{letter-spacing:-0.01em;}</style></defs><title>工作區域 29 複本</title><path class="cls-1" d="M228.93,194.82H245l48.62,0V208L245,208v29.26l47.39,0V250L245,250l0,39.14,49,0v13.31l-49,0H229l-.05-107.68Zm115.5,38.65c15.41,0,27.58,7,27.46,27,0,.26,0,.5,0,.74h0l0,41.46h-15l0-41.47h.15c.42-11.2-6-16-16.55-16-16.13,0-17.22,13.76-18,16l0,41.47H307.68l0-66.34h14.84v7.06a29.26,29.26,0,0,1,21.93-10ZM609,233.21c15.41,0,27.59,7,27.46,27,0,.26,0,.5,0,.75h0l0,41.47h-15l0-41.47h.15c.42-11.2-6-16-16.55-16-16.12,0-17.22,13.77-18,16.06l0,41.47H572.24l0-66.35H587v7.07a29.22,29.22,0,0,1,21.93-10ZM442.75,245.56l31,0c0-.08,0-.14,0-.22h14.39c0,.06,0,.12,0,.18-1.21,38-24.54,57.42-54.16,57.43S380.17,277.81,380.15,247s22.49-55.15,53.77-56c20-.54,37.1,6.37,46.5,21.37l-10.22,8.68c-6.43-12.21-20.08-18.19-36.22-16.93-24.36,1.89-39.71,19-39.7,42.21S412.14,288.51,434,288.5c18.25,0,32.67-8.73,37.84-30H442.76v-13Zm66.39,13.73,40.69,0c-2.53-11-9.42-15.94-19.38-15.94a22.62,22.62,0,0,0-21.31,16Zm54.45,10.19v.27l-55.39,0c1.43,11.35,10.42,20.35,21.76,20.34,8.9,0,18.83-5,22.06-12.92l12.89,6.69c-4.63,12.23-21.2,19.22-36.13,19.23a35.79,35.79,0,0,1-35.68-36.07c0-19.64,14.28-35.88,36.27-35.47s36.51,13.07,35.47,37.74c0,0,0,.09,0,.13l-1.3,0Zm90.2-33.79h16.07l0,66.76H653.83l0-66.76Zm7.95-27.76a7.86,7.86,0,1,1-7.85,7.87,7.86,7.86,0,0,1,7.85-7.87Zm88.17,63.49c1.25,21.72-11.43,31-31.72,31-21.45,0-30.24-10.81-31.83-25.45l-.27-5.16v0s0,0,0,0l0-36.88h15.27v9.32l.14,27.24,0,5.82c0,5.64,7,13.2,17.45,13.2A15.16,15.16,0,0,0,734.65,276v-7.81l0-23.7V233.89H749.9l0,37.53Zm35.81-40c9.56,0,17.77,5,21.11,12.16l-12.71,6a9,9,0,0,0-8-6.06c-4.41-.25-8.42,2.88-8.41,7,0,3.32,5.22,6.16,8.9,7.22,2.15.85,9.94,4,15.11,6.57l-.09.06c6.79,3.26,11.26,9,10.72,17.26-1.68,12.55-12.16,20.8-26.62,20.81-12.13,0-22.39-6.55-25.37-15.38l13.52-5.61.06,0c1.16,4,5.06,7.37,9.69,8.27,5.87,1.23,11.45-.08,12.89-7.47,2.06-7.48-7.93-7.64-13.81-11.82-4.9-1.41-11.71-5.88-11.68-5.9-6.16-3.4-7.78-8.25-7.78-13.91C763.28,240,773.22,231.37,785.73,231.37Z"/><path class="cls-1" d="M661.73,152A68.54,68.54,0,0,1,713,175.25l-3.62,3.39a64.43,64.43,0,0,0-47.66-21.83c-18.93,0-37.24,8.64-48.61,22.41l-3.91-2.93A69.9,69.9,0,0,1,661.73,152Zm0,34.06A27,27,0,0,1,685,199.27l-3.57,3.05-.18.12A22.15,22.15,0,0,0,642,203l-3.8-3.12A27,27,0,0,1,661.74,186Zm0-16.92a47.09,47.09,0,0,0-37.65,19l3.6,2.92a42.67,42.67,0,0,1,34-17.1,41.13,41.13,0,0,1,33,17l3.85-3.29A46.64,46.64,0,0,0,661.73,169.11Z"/><path class="cls-2" d="M819.78,231h0a8.48,8.48,0,0,1,8.5,8.49h0a8.49,8.49,0,0,1-8.49,8.5h0a8.49,8.49,0,0,1-8.5-8.49h0a8.49,8.49,0,0,1,8.49-8.5h0Zm0,1.43h0a7.11,7.11,0,0,0-7.07,7.08h0a7.1,7.1,0,0,0,7.08,7.07h0a7.1,7.1,0,0,0,7.07-7.07h0a7.1,7.1,0,0,0-7.08-7.07Z"/><path class="cls-2" d="M816,244.48v-9.93h4.11a5.23,5.23,0,0,1,1.88.27,2.13,2.13,0,0,1,1,.95,2.94,2.94,0,0,1,.38,1.49,2.58,2.58,0,0,1-.64,1.78,3.13,3.13,0,0,1-2,.92,3.14,3.14,0,0,1,.74.5,6.41,6.41,0,0,1,1,1.32l1.62,2.7h-1.54l-1.23-2.07q-.54-.89-.89-1.37a3.09,3.09,0,0,0-.62-.66,2,2,0,0,0-.56-.27,3.5,3.5,0,0,0-.69,0h-1.43v4.41Zm1.23-5.55h2.64a3.71,3.71,0,0,0,1.32-.18,1.47,1.47,0,0,0,.72-.6,1.67,1.67,0,0,0,.24-.89,1.54,1.54,0,0,0-.47-1.16,2.14,2.14,0,0,0-1.51-.45h-2.94Z"/><path class="cls-3" d="M1135.51,278.87H1148v2.55h-9.41v5.66h9.17v2.47h-9.17v7.58h9.49v2.58h-12.6V278.87Zm22.35,7.48c3,0,5.34,1.36,5.31,5.23,0,0,0,.1,0,.14h0v8h-2.9v-8h0c.08-2.17-1.15-3.1-3.2-3.1a3.36,3.36,0,0,0-3.49,3.11v8h-2.87V286.92h2.87v1.37a5.66,5.66,0,0,1,4.24-1.93Zm51.2-.05c3,0,5.34,1.36,5.31,5.23,0,0,0,.1,0,.14h0v8h-2.9v-8h0c.08-2.17-1.15-3.11-3.2-3.1a3.36,3.36,0,0,0-3.48,3.11v8H1202V286.87h2.87v1.37a5.66,5.66,0,0,1,4.24-1.93Zm-32.17,2.39h6v0h2.79v0c-.23,7.36-4.75,11.11-10.48,11.12a10.84,10.84,0,0,1,0-21.66c3.87-.1,7.18,1.23,9,4.13l-2,1.68c-1.24-2.36-3.89-3.52-7-3.28a7.87,7.87,0,0,0-7.68,8.17,8,8,0,0,0,7.69,8.16c3.53,0,6.32-1.69,7.32-5.8h-5.63v-2.52Zm12.85,2.66h7.88a3.55,3.55,0,0,0-3.75-3.08,4.38,4.38,0,0,0-4.13,3.09Zm10.54,2v.05h-10.72a4.35,4.35,0,0,0,4.21,3.94,4.7,4.7,0,0,0,4.27-2.5l2.5,1.3c-.9,2.37-4.1,3.72-7,3.72a6.93,6.93,0,0,1-6.9-7,6.66,6.66,0,0,1,7-6.86c4.26.08,7.07,2.53,6.86,7.3v0Zm17.46-6.54h3.11V299.7h-3.11V286.78Zm1.54-5.37a1.52,1.52,0,1,1-1.52,1.52,1.52,1.52,0,0,1,1.52-1.52Zm17.06,12.29c.24,4.2-2.21,6-6.14,6-4.15,0-5.85-2.09-6.16-4.92l-.05-1h0v-7.14h3v1.8l0,5.27v1.13c0,1.09,1.36,2.56,3.38,2.55a2.93,2.93,0,0,0,3-2.8v-8.15h3v7.26Zm6.93-7.75a4.46,4.46,0,0,1,4.09,2.35l-2.46,1.17a1.74,1.74,0,0,0-1.55-1.17,1.47,1.47,0,0,0-1.63,1.36c0,.64,1,1.19,1.72,1.4.42.16,1.92.77,2.92,1.27h0a3.32,3.32,0,0,1,2.08,3.34c-.32,2.43-2.35,4-5.15,4a5,5,0,0,1-4.91-3l2.62-1.09h0a2.42,2.42,0,0,0,1.88,1.6c1.14.24,2.22,0,2.49-1.45s-1.53-1.48-2.67-2.29a10.36,10.36,0,0,1-2.26-1.14,2.76,2.76,0,0,1-1.51-2.69C1238.93,287.62,1240.86,285.95,1243.28,285.95Z"/><path class="cls-3" d="M1219.28,270.58a13.27,13.27,0,0,1,9.93,4.5l-.7.66a12.28,12.28,0,0,0-18.63.11l-.76-.57a13.53,13.53,0,0,1,10.16-4.71Zm0,6.59a5.23,5.23,0,0,1,4.5,2.56l-.69.59,0,0a4.29,4.29,0,0,0-7.59.1l-.74-.6a5.23,5.23,0,0,1,4.55-2.67Zm0-3.28a9.11,9.11,0,0,0-7.29,3.68l.7.57a8.26,8.26,0,0,1,6.59-3.31,8,8,0,0,1,6.39,3.28l.75-.64A9,9,0,0,0,1219.28,273.9Z"/><path class="cls-4" d="M1249.87,285.88h0a1.64,1.64,0,0,1,1.65,1.64h0a1.64,1.64,0,0,1-1.64,1.64h0a1.64,1.64,0,0,1-1.64-1.64h0a1.64,1.64,0,0,1,1.64-1.64h0Zm0,.28h0a1.38,1.38,0,0,0-1.37,1.37h0a1.37,1.37,0,0,0,1.37,1.37h0a1.37,1.37,0,0,0,1.37-1.37h0a1.37,1.37,0,0,0-1.37-1.37Z"/><path class="cls-4" d="M1249.14,288.48v-1.92h.8a1,1,0,0,1,.36.05.41.41,0,0,1,.2.18.57.57,0,0,1,.07.29.5.5,0,0,1-.12.34.21.21,0,1,0-.24.27,1.24,1.24,0,0,1,.2.26l.31.52h-.3l-.24-.4-.17-.26a.6.6,0,0,0-.12-.13l-.11-.05h-.41v.85Zm.24-1.07h.51a.72.72,0,0,0,.25,0,.28.28,0,0,0,.14-.12.32.32,0,0,0,0-.17.3.3,0,0,0-.09-.22.41.41,0,0,0-.29-.09h-.57Z"/><line class="cls-5" x1="1250.15" y1="316.5" x2="1130.19" y2="316.5"/><polygon class="cls-6" points="1249.16 315.65 1250.01 316.5 1249.16 317.34 1249.88 317.34 1250.73 316.5 1249.88 315.65 1249.16 315.65"/><polygon class="cls-6" points="1131.18 315.65 1130.34 316.5 1131.18 317.34 1130.46 317.34 1129.62 316.5 1130.46 315.65 1131.18 315.65"/><path class="cls-3" d="M1135.51,575.32H1148v2.55h-9.41v5.66h9.17V586h-9.17v7.58h9.49v2.58h-12.6V575.32Zm22.35,7.48c3,0,5.34,1.36,5.31,5.23,0,0,0,.1,0,.14h0v8h-2.9v-8h0c.08-2.17-1.15-3.1-3.2-3.1a3.36,3.36,0,0,0-3.49,3.11v8h-2.87V583.36h2.87v1.37a5.66,5.66,0,0,1,4.24-1.93Zm51.2-.05c3,0,5.34,1.36,5.31,5.23,0,0,0,.1,0,.14h0v8h-2.9v-8h0c.08-2.17-1.15-3.11-3.2-3.1a3.36,3.36,0,0,0-3.48,3.11v8H1202V583.31h2.87v1.37a5.66,5.66,0,0,1,4.24-1.93Zm-32.17,2.39h6v0h2.79v0c-.23,7.36-4.75,11.11-10.48,11.12a10.84,10.84,0,0,1,0-21.66c3.87-.1,7.18,1.23,9,4.13l-2,1.68c-1.24-2.36-3.89-3.52-7-3.28a7.87,7.87,0,0,0-7.68,8.17,8,8,0,0,0,7.69,8.16c3.53,0,6.32-1.69,7.32-5.8h-5.63v-2.52Zm12.85,2.66h7.88a3.55,3.55,0,0,0-3.75-3.08,4.38,4.38,0,0,0-4.13,3.09Zm10.54,2v.05h-10.72a4.35,4.35,0,0,0,4.21,3.94,4.7,4.7,0,0,0,4.27-2.5l2.5,1.3c-.9,2.37-4.1,3.72-7,3.72a6.93,6.93,0,0,1-6.9-7,6.66,6.66,0,0,1,7-6.86c4.26.08,7.07,2.53,6.86,7.3v0Zm17.46-6.54h3.11v12.92h-3.11V583.23Zm1.54-5.37a1.52,1.52,0,1,1-1.52,1.52,1.52,1.52,0,0,1,1.52-1.52Zm17.06,12.29c.24,4.2-2.21,6-6.14,6-4.15,0-5.85-2.09-6.16-4.92l-.05-1h0v-7.14h3v1.8l0,5.27v1.13c0,1.09,1.36,2.56,3.38,2.55a2.93,2.93,0,0,0,3-2.8v-8.15h3v7.26Zm6.93-7.75a4.46,4.46,0,0,1,4.09,2.35l-2.46,1.17a1.74,1.74,0,0,0-1.55-1.17,1.47,1.47,0,0,0-1.63,1.36c0,.64,1,1.19,1.72,1.4.42.16,1.92.77,2.92,1.27h0a3.32,3.32,0,0,1,2.08,3.34c-.32,2.43-2.35,4-5.15,4a5,5,0,0,1-4.91-3l2.62-1.09h0a2.42,2.42,0,0,0,1.88,1.6c1.14.24,2.22,0,2.49-1.45s-1.53-1.48-2.67-2.29a10.36,10.36,0,0,1-2.26-1.14,2.76,2.76,0,0,1-1.51-2.69C1238.93,584.07,1240.86,582.39,1243.28,582.39Z"/><path class="cls-3" d="M1219.28,567a13.27,13.27,0,0,1,9.93,4.5l-.7.66a12.28,12.28,0,0,0-18.63.11l-.76-.57a13.53,13.53,0,0,1,10.16-4.71Zm0,6.59a5.23,5.23,0,0,1,4.5,2.56l-.69.59,0,0a4.29,4.29,0,0,0-7.59.1l-.74-.6a5.23,5.23,0,0,1,4.55-2.67Zm0-3.28A9.11,9.11,0,0,0,1212,574l.7.57a8.26,8.26,0,0,1,6.59-3.31,8,8,0,0,1,6.39,3.28l.75-.64A9,9,0,0,0,1219.28,570.34Z"/><path class="cls-4" d="M1249.87,582.33h0a1.64,1.64,0,0,1,1.65,1.64h0a1.64,1.64,0,0,1-1.64,1.64h0a1.64,1.64,0,0,1-1.64-1.64h0a1.64,1.64,0,0,1,1.64-1.64h0Zm0,.28h0a1.38,1.38,0,0,0-1.37,1.37h0a1.37,1.37,0,0,0,1.37,1.37h0a1.37,1.37,0,0,0,1.37-1.37h0a1.37,1.37,0,0,0-1.37-1.37Z"/><path class="cls-4" d="M1249.14,584.93V583h.8a1,1,0,0,1,.36.05.41.41,0,0,1,.2.18.57.57,0,0,1,.07.29.5.5,0,0,1-.12.34.21.21,0,1,0-.24.27,1.24,1.24,0,0,1,.2.26l.31.52h-.3l-.24-.4-.17-.26a.6.6,0,0,0-.12-.13l-.11-.05h-.41v.85Zm.24-1.07h.51a.72.72,0,0,0,.25,0,.28.28,0,0,0,.14-.12.32.32,0,0,0,0-.17.3.3,0,0,0-.09-.22.41.41,0,0,0-.29-.09h-.57Z"/><line class="cls-5" x1="1250.15" y1="612.94" x2="1130.19" y2="612.94"/><polygon class="cls-6" points="1249.16 612.1 1250.01 612.94 1249.16 613.79 1249.88 613.79 1250.73 612.94 1249.88 612.1 1249.16 612.1"/><polygon class="cls-6" points="1131.18 612.1 1130.34 612.94 1131.18 613.79 1130.46 613.79 1129.62 612.94 1130.46 612.1 1131.18 612.1"/><path class="cls-3" d="M228.93,512.55h16l48.52,0v13.15l-48.52,0V554.9l47.29,0v12.74l-47.29,0,0,39.06,48.93,0V620L245,620H229l-.05-107.44Zm115.25,38.57c15.38,0,27.52,7,27.4,27,0,.26,0,.5,0,.74h0l0,41.37H356.65l0-41.38h.15c.42-11.18-5.95-16-16.52-16-16.09,0-17.18,13.73-18,16l0,41.38h-14.8l0-66.2h14.81v7a29.2,29.2,0,0,1,21.89-10Zm264-.26c15.38,0,27.53,7,27.4,27,0,.26,0,.5,0,.75h0l0,41.38H620.63l0-41.38h.15c.42-11.18-6-16-16.52-16-16.08,0-17.18,13.74-18,16l0,41.38h-14.8l0-66.21h14.8v7.05a29.16,29.16,0,0,1,21.88-9.95ZM442.29,563.18l30.91,0c0-.08,0-.14,0-.22h14.36c0,.06,0,.12,0,.18-1.21,37.94-24.48,57.3-54,57.31s-53.69-25.07-53.7-55.82,22.44-55,53.65-55.87c20-.53,37,6.36,46.4,21.32l-10.2,8.67c-6.41-12.19-20-18.15-36.14-16.89-24.3,1.88-39.63,18.93-39.62,42.12S411.74,606,433.57,606c18.21,0,32.6-8.71,37.75-29.89h-29v-13Zm66.25,13.7,40.6,0c-2.52-11-9.4-15.9-19.33-15.9a22.57,22.57,0,0,0-21.27,15.92Zm54.34,10.17v.27l-55.27,0c1.43,11.33,10.4,20.3,21.71,20.3,8.88,0,18.79-5,22-12.89l12.87,6.68c-4.62,12.21-21.15,19.18-36,19.19a35.71,35.71,0,0,1-35.6-36c0-19.6,14.25-35.8,36.19-35.39s36.43,13,35.39,37.66c0,0,0,.09,0,.13l-1.3,0Zm90-33.72h16l0,66.61h-16l0-66.61Zm7.93-27.7a7.84,7.84,0,1,1-7.83,7.85,7.84,7.84,0,0,1,7.83-7.85Zm88,63.35c1.25,21.67-11.41,30.95-31.65,31-21.41,0-30.17-10.79-31.76-25.39l-.27-5.15v0s0,0,0,0l0-36.8h15.24v9.3l.14,27.18,0,5.81c0,5.63,7,13.17,17.41,13.17a15.12,15.12,0,0,0,15.66-14.45v-7.8l0-23.65V551.54h15.24l0,37.44Zm35.73-40c9.54,0,17.73,5,21.07,12.13l-12.68,6a9,9,0,0,0-8-6c-4.41-.25-8.4,2.87-8.39,7,0,3.32,5.21,6.14,8.88,7.2,2.14.85,9.92,4,15.08,6.55l-.08.06c6.77,3.25,11.23,9,10.7,17.22-1.67,12.52-12.14,20.75-26.56,20.77-12.1,0-22.34-6.54-25.32-15.34l13.49-5.6.06,0c1.16,4,5.05,7.35,9.67,8.25,5.85,1.22,11.42-.08,12.86-7.45,2.05-7.47-7.91-7.63-13.78-11.8-4.89-1.41-11.68-5.87-11.65-5.88-6.15-3.39-7.76-8.23-7.76-13.88C762.12,557.67,772,549,784.52,549Z"/><path class="cls-3" d="M660.79,469.8A68.39,68.39,0,0,1,712,493l-3.61,3.38a64.29,64.29,0,0,0-47.56-21.78c-18.89,0-37.16,8.62-48.5,22.36l-3.9-2.93a69.75,69.75,0,0,1,52.4-24.26Zm0,34A27,27,0,0,1,684,517l-3.56,3-.18.12a22.11,22.11,0,0,0-39.11.51l-3.79-3.12a27,27,0,0,1,23.46-13.77Zm0-16.89a47,47,0,0,0-37.56,19l3.6,2.92a42.58,42.58,0,0,1,34-17.06,41,41,0,0,1,33,16.92l3.84-3.28A46.54,46.54,0,0,0,660.79,486.9Z"/><path class="cls-4" d="M818.5,548.67h0a8.47,8.47,0,0,1,8.48,8.47h0a8.47,8.47,0,0,1-8.48,8.48h0a8.47,8.47,0,0,1-8.48-8.48h0a8.48,8.48,0,0,1,8.48-8.48h0Zm0,1.42h0a7.09,7.09,0,0,0-7.06,7.06h0a7.08,7.08,0,0,0,7.06,7.06h0a7.09,7.09,0,0,0,7.06-7.06h0a7.09,7.09,0,0,0-7.06-7.05Z"/><path class="cls-4" d="M814.77,562.11v-9.9h4.1a5.22,5.22,0,0,1,1.88.26,2.13,2.13,0,0,1,1,.95,2.94,2.94,0,0,1,.38,1.49,2.57,2.57,0,0,1-.64,1.78,3.12,3.12,0,0,1-2,.92,3.14,3.14,0,0,1,.74.5,6.4,6.4,0,0,1,1,1.32l1.61,2.7h-1.54L820.16,560q-.54-.89-.89-1.36a3.09,3.09,0,0,0-.62-.66,2,2,0,0,0-.56-.26,3.49,3.49,0,0,0-.69,0H816v4.4Zm1.22-5.53h2.63a3.7,3.7,0,0,0,1.31-.18,1.46,1.46,0,0,0,.72-.6,1.67,1.67,0,0,0,.24-.89,1.54,1.54,0,0,0-.47-1.16,2.14,2.14,0,0,0-1.51-.45H816Z"/><g class="cls-7"><line class="cls-8" x1="126.18" y1="384.22" x2="126.18" y2="710.15"/><line class="cls-8" x1="143.3" y1="385.11" x2="143.3" y2="709.79"/><line class="cls-8" x1="160.43" y1="385.11" x2="160.43" y2="709.79"/><line class="cls-8" x1="177.55" y1="385.11" x2="177.55" y2="709.79"/><line class="cls-8" x1="194.68" y1="385.11" x2="194.68" y2="709.79"/><line class="cls-8" x1="211.8" y1="385.11" x2="211.8" y2="709.79"/><line class="cls-8" x1="228.93" y1="385.11" x2="228.93" y2="709.79"/><line class="cls-8" x1="246.05" y1="385.11" x2="246.05" y2="709.79"/><line class="cls-8" x1="263.17" y1="385.11" x2="263.17" y2="709.79"/><line class="cls-8" x1="280.3" y1="385.11" x2="280.3" y2="709.79"/><line class="cls-8" x1="297.42" y1="385.11" x2="297.42" y2="709.79"/><line class="cls-8" x1="314.55" y1="385.11" x2="314.55" y2="709.79"/><line class="cls-8" x1="331.67" y1="385.11" x2="331.67" y2="709.79"/><line class="cls-8" x1="348.8" y1="385.11" x2="348.8" y2="709.79"/><line class="cls-8" x1="365.92" y1="385.11" x2="365.92" y2="709.79"/><line class="cls-8" x1="383.05" y1="385.11" x2="383.05" y2="709.79"/><line class="cls-8" x1="400.17" y1="385.11" x2="400.17" y2="709.79"/><line class="cls-8" x1="417.3" y1="385.11" x2="417.3" y2="709.79"/><line class="cls-8" x1="434.42" y1="385.11" x2="434.42" y2="709.79"/><line class="cls-8" x1="451.55" y1="385.11" x2="451.55" y2="709.79"/><line class="cls-8" x1="468.67" y1="385.11" x2="468.67" y2="709.79"/><line class="cls-8" x1="485.8" y1="385.11" x2="485.8" y2="709.79"/><line class="cls-8" x1="502.92" y1="385.11" x2="502.92" y2="709.79"/><line class="cls-8" x1="520.05" y1="385.11" x2="520.05" y2="709.79"/><line class="cls-8" x1="537.17" y1="385.11" x2="537.17" y2="709.79"/><line class="cls-8" x1="554.29" y1="385.11" x2="554.29" y2="709.79"/><line class="cls-8" x1="571.42" y1="385.11" x2="571.42" y2="709.79"/><line class="cls-8" x1="588.54" y1="385.11" x2="588.54" y2="709.79"/><line class="cls-8" x1="605.67" y1="385.11" x2="605.67" y2="709.79"/><line class="cls-8" x1="622.79" y1="385.11" x2="622.79" y2="709.79"/><line class="cls-8" x1="639.92" y1="385.11" x2="639.92" y2="709.79"/><line class="cls-8" x1="657.04" y1="385.11" x2="657.04" y2="709.79"/><line class="cls-8" x1="674.17" y1="385.11" x2="674.17" y2="709.79"/><line class="cls-8" x1="691.29" y1="385.11" x2="691.29" y2="709.79"/><line class="cls-8" x1="708.42" y1="385.11" x2="708.42" y2="709.79"/><line class="cls-8" x1="725.54" y1="385.11" x2="725.54" y2="709.79"/><line class="cls-8" x1="742.67" y1="385.11" x2="742.67" y2="709.79"/><line class="cls-8" x1="759.79" y1="385.11" x2="759.79" y2="709.79"/><line class="cls-8" x1="776.92" y1="385.11" x2="776.92" y2="709.79"/><line class="cls-8" x1="794.04" y1="385.11" x2="794.04" y2="709.79"/><line class="cls-8" x1="811.16" y1="385.11" x2="811.16" y2="709.79"/><line class="cls-8" x1="828.29" y1="385.11" x2="828.29" y2="709.79"/><line class="cls-8" x1="845.41" y1="385.11" x2="845.41" y2="709.79"/><line class="cls-8" x1="862.54" y1="385.11" x2="862.54" y2="709.79"/><line class="cls-8" x1="879.66" y1="385.11" x2="879.66" y2="709.79"/><line class="cls-8" x1="896.79" y1="385.11" x2="896.79" y2="709.79"/><line class="cls-8" x1="914.17" y1="384.49" x2="126.18" y2="384.49"/><line class="cls-8" x1="914.17" y1="401.61" x2="126.69" y2="401.61"/><line class="cls-8" x1="914.17" y1="418.74" x2="126.69" y2="418.74"/><line class="cls-8" x1="914.17" y1="435.86" x2="126.69" y2="435.86"/><line class="cls-8" x1="914.17" y1="452.99" x2="126.69" y2="452.99"/><line class="cls-8" x1="914.17" y1="470.11" x2="126.69" y2="470.11"/><line class="cls-8" x1="914.17" y1="487.24" x2="126.69" y2="487.24"/><line class="cls-8" x1="914.17" y1="504.36" x2="126.69" y2="504.36"/><line class="cls-8" x1="914.17" y1="521.49" x2="126.69" y2="521.49"/><line class="cls-8" x1="914.17" y1="538.61" x2="126.69" y2="538.61"/><line class="cls-8" x1="914.17" y1="555.74" x2="126.69" y2="555.74"/><line class="cls-8" x1="914.17" y1="572.86" x2="126.69" y2="572.86"/><line class="cls-8" x1="914.17" y1="589.99" x2="126.69" y2="589.99"/><line class="cls-8" x1="914.17" y1="607.11" x2="126.69" y2="607.11"/><line class="cls-8" x1="914.17" y1="624.23" x2="126.69" y2="624.23"/><line class="cls-8" x1="914.17" y1="641.36" x2="126.69" y2="641.36"/><line class="cls-8" x1="914.17" y1="658.48" x2="126.69" y2="658.48"/><line class="cls-8" x1="914.17" y1="675.61" x2="126.69" y2="675.61"/><line class="cls-8" x1="914.17" y1="692.73" x2="126.69" y2="692.73"/><line class="cls-8" x1="914.17" y1="709.86" x2="126.69" y2="709.86"/><line class="cls-8" x1="914.17" y1="384.22" x2="914.17" y2="710.15"/></g><text class="cls-9" transform="translate(51.03 69.83)">Logo</text><line class="cls-5" x1="51.03" y1="92.5" x2="1449.7" y2="92.5"/><text class="cls-10" transform="translate(1110.69 348.51)">Digital : 60<tspan class="cls-11" x="90.87" y="0">p</tspan><tspan x="101.81" y="0">x width</tspan></text><text class="cls-10" transform="translate(1110.69 641.96)">Print : 22mm width</text></svg>