<svg id="Layer_1" data-name="Layer 1" xmlns="http://www.w3.org/2000/svg" viewBox="0 0 750 403.62"><defs><style>.cls-1,.cls-2{fill:#202322;}.cls-1,.cls-3{fill-rule:evenodd;}.cls-3,.cls-4{fill:#212222;}.cls-5,.cls-8{fill:none;stroke-miterlimit:10;stroke-width:0.5px;}.cls-5{stroke:#1a1a1a;}.cls-10,.cls-6{fill:#1a1a1a;}.cls-7{opacity:0.5;}.cls-8{stroke:#e99915;}.cls-9{font-size:15px;fill:#3e3a39;}.cls-10,.cls-9{font-family:Roboto-Light, Roboto;}.cls-10{font-size:10px;}.cls-11{letter-spacing:-0.01em;}</style></defs><title>工作區域 29 複本</title><path class="cls-1" d="M114.64,93.59H147v6.59H122.68v14.63h23.69v6.38H122.69v19.57h24.52v6.65H114.67l0-53.84Zm57.75,19.33c7.71,0,13.79,3.51,13.73,13.51,0,.13,0,.25,0,.37h0v20.73h-7.49V126.81h.07c.21-5.6-3-8-8.28-8-8.06,0-8.61,6.88-9,8v20.73H154l0-33.17h7.42v3.53a14.63,14.63,0,0,1,11-5Zm132.28-.13c7.7,0,13.8,3.51,13.73,13.51,0,.13,0,.25,0,.37h0v20.73h-7.49V126.68H311c.21-5.6-3-8-8.28-8-8.06,0-8.61,6.88-9,8v20.73H286.3l0-33.18h7.42v3.53a14.61,14.61,0,0,1,11-5ZM221.56,119H237s0-.07,0-.11h7.2s0,.06,0,.09c-.61,19-12.27,28.71-27.08,28.72s-26.9-12.56-26.91-28,11.24-27.57,26.88-28c10-.27,18.55,3.18,23.25,10.68l-5.11,4.34c-3.21-6.11-10-9.1-18.11-8.47-12.18.94-19.86,9.49-19.85,21.11s8.93,21.09,19.87,21.08c9.12,0,16.33-4.36,18.92-15H221.56V119Zm33.2,6.86H275.1c-1.26-5.5-4.71-8-9.69-8a11.31,11.31,0,0,0-10.66,8Zm27.23,5.1v.13h-27.7c.72,5.68,5.21,10.17,10.88,10.17,4.45,0,9.41-2.5,11-6.46l6.45,3.35c-2.31,6.12-10.6,9.61-18.06,9.62a17.9,17.9,0,0,1-17.84-18c0-9.82,7.14-17.94,18.14-17.73s18.25,6.54,17.73,18.87l0,.06Zm45.1-16.9h8l0,33.38h-8l0-33.38Zm4-13.88a3.93,3.93,0,1,1-3.93,3.93,3.93,3.93,0,0,1,3.93-3.93Zm44.08,31.74c.63,10.86-5.72,15.51-15.86,15.51-10.73,0-15.12-5.4-15.91-12.72l-.14-2.58h0s0,0,0,0V113.63h7.64v4.66l.07,13.62v2.91c0,2.82,3.51,6.6,8.72,6.6a7.58,7.58,0,0,0,7.85-7.24v-21h7.64v18.76Zm17.91-20c4.78,0,8.88,2.52,10.56,6.08l-6.35,3a4.5,4.5,0,0,0-4-3,3.8,3.8,0,0,0-4.21,3.51c0,1.66,2.61,3.08,4.45,3.61,1.07.42,5,2,7.56,3.28l0,0c3.39,1.63,5.63,4.49,5.36,8.63-.84,6.27-6.08,10.4-13.31,10.41-6.06,0-11.19-3.27-12.69-7.69l6.76-2.81,0,0a6.26,6.26,0,0,0,4.85,4.13c2.93.61,5.72,0,6.45-3.73,1-3.74-4-3.82-6.91-5.91a26.77,26.77,0,0,1-5.84-2.95c-3.08-1.7-3.89-4.12-3.89-7C381.82,116.2,386.79,111.87,393,111.87Z"/><path class="cls-1" d="M331,72.17a34.27,34.27,0,0,1,25.65,11.64l-1.81,1.69a31.72,31.72,0,0,0-48.14.29l-2-1.47A35,35,0,0,1,331,72.17Zm0,17a13.51,13.51,0,0,1,11.62,6.62l-1.78,1.53-.09.06a11.08,11.08,0,0,0-19.6.25l-1.9-1.56a13.51,13.51,0,0,1,11.76-6.9Zm0-8.46a23.55,23.55,0,0,0-18.82,9.5L314,91.7a21.34,21.34,0,0,1,17-8.55,20.56,20.56,0,0,1,16.51,8.48L349.49,90A23.32,23.32,0,0,0,331,80.74Z"/><path class="cls-2" d="M410.07,111.69h0a4.24,4.24,0,0,1,4.25,4.25h0a4.24,4.24,0,0,1-4.25,4.25h0a4.24,4.24,0,0,1-4.25-4.25h0a4.25,4.25,0,0,1,4.25-4.25h0Zm0,.71h0a3.55,3.55,0,0,0-3.54,3.54h0a3.55,3.55,0,0,0,3.54,3.54h0a3.55,3.55,0,0,0,3.54-3.54h0a3.55,3.55,0,0,0-3.54-3.53Z"/><path class="cls-2" d="M408.2,118.43v-5h2.06a2.61,2.61,0,0,1,.94.13,1.07,1.07,0,0,1,.52.47,1.47,1.47,0,0,1,.19.75,1.29,1.29,0,0,1-.32.89,1.57,1.57,0,0,1-1,.46,1.57,1.57,0,0,1,.37.25,3.21,3.21,0,0,1,.51.66l.81,1.35h-.77l-.61-1q-.27-.45-.44-.68a1.55,1.55,0,0,0-.31-.33,1,1,0,0,0-.28-.13,1.75,1.75,0,0,0-.34,0h-.71v2.2Zm.61-2.77h1.32a1.86,1.86,0,0,0,.66-.09.73.73,0,0,0,.36-.3.84.84,0,0,0,.12-.45.77.77,0,0,0-.24-.58,1.07,1.07,0,0,0-.75-.22h-1.47Z"/><path class="cls-3" d="M567.94,135.62h6.26v1.28h-4.71v2.83h4.59V141H569.5v3.79h4.75V146h-6.3V135.62Zm11.18,3.74a2.36,2.36,0,0,1,2.66,2.62V142h0v4h-1.45v-4h0c0-1.08-.58-1.55-1.6-1.55a1.68,1.68,0,0,0-1.74,1.55v4h-1.44v-6.42H577v.68a2.83,2.83,0,0,1,2.12-1Zm25.6,0a2.36,2.36,0,0,1,2.66,2.61s0,0,0,.07h0v4h-1.45v-4h0c0-1.08-.58-1.55-1.6-1.55a1.68,1.68,0,0,0-1.74,1.55v4h-1.44v-6.42h1.44v.68a2.83,2.83,0,0,1,2.12-1Zm-16.09,1.2h3v0H593v0c-.12,3.68-2.37,5.56-5.24,5.56a5.42,5.42,0,0,1,0-10.83,4.88,4.88,0,0,1,4.5,2.07l-1,.84a3.45,3.45,0,0,0-3.51-1.64,3.93,3.93,0,0,0-3.84,4.09,4,4,0,0,0,3.85,4.08,3.48,3.48,0,0,0,3.66-2.9h-2.82v-1.26Zm6.42,1.33H599a1.77,1.77,0,0,0-1.88-1.54,2.19,2.19,0,0,0-2.06,1.54Zm5.27,1v0H595a2.17,2.17,0,0,0,2.11,2,2.35,2.35,0,0,0,2.13-1.25l1.25.65c-.45,1.18-2.05,1.86-3.5,1.86a3.46,3.46,0,0,1-3.45-3.49,3.33,3.33,0,0,1,3.51-3.43,3.2,3.2,0,0,1,3.43,3.65h-.12Zm8.73-3.27h1.55V146h-1.55v-6.46Zm.77-2.69a.76.76,0,1,1-.76.76.76.76,0,0,1,.76-.76Zm8.53,6.14c.12,2.1-1.11,3-3.07,3s-2.93-1-3.08-2.46l0-.5h0V139.5h1.48v4.1a1.6,1.6,0,0,0,1.69,1.28,1.47,1.47,0,0,0,1.52-1.4V139.4h1.48V143Zm3.47-3.88a2.23,2.23,0,0,1,2,1.18l-1.23.58a.87.87,0,0,0-.77-.59.74.74,0,0,0-.81.68c0,.32.51.6.86.7s1,.38,1.46.64h0a1.66,1.66,0,0,1,1,1.67,2.39,2.39,0,0,1-2.58,2,2.52,2.52,0,0,1-2.46-1.49l1.31-.54h0a1.21,1.21,0,0,0,.94.8c.57.12,1.11,0,1.25-.72s-.77-.74-1.34-1.14a5.18,5.18,0,0,1-1.13-.57,1.38,1.38,0,0,1-.75-1.35A2,2,0,0,1,621.82,139.16Z"/><path class="cls-3" d="M609.82,131.48a6.63,6.63,0,0,1,5,2.25l-.35.33a6.14,6.14,0,0,0-9.32.06l-.38-.28a6.76,6.76,0,0,1,5.08-2.35Zm0,3.3a2.62,2.62,0,0,1,2.25,1.28l-.35.3h0a2.14,2.14,0,0,0-3.79,0l-.37-.3a2.62,2.62,0,0,1,2.28-1.34Zm0-1.64a4.56,4.56,0,0,0-3.64,1.84l.35.28a4.13,4.13,0,0,1,3.29-1.65,4,4,0,0,1,3.2,1.64l.37-.32A4.51,4.51,0,0,0,609.82,133.13Z"/><path class="cls-4" d="M625.12,139.12h0a.82.82,0,0,1,.82.82h0a.82.82,0,0,1-.82.82h0a.82.82,0,0,1-.82-.82h0a.82.82,0,0,1,.82-.82h0Zm0,.14h0a.69.69,0,0,0-.68.68h0a.69.69,0,0,0,.68.68h0a.69.69,0,0,0,.68-.68h0a.69.69,0,0,0-.68-.68Z"/><path class="cls-4" d="M624.75,140.43v-1h.4a.51.51,0,0,1,.18,0,.21.21,0,0,1,.1.09.28.28,0,0,1,0,.14.25.25,0,0,1-.06.17.3.3,0,0,1-.19.09l.07,0a.62.62,0,0,1,.1.13l.16.26h-.15l-.12-.2-.09-.13-.06-.06-.05,0h-.2v.43Zm.12-.54h.26l.13,0a.14.14,0,0,0,.07-.06.16.16,0,0,0,0-.09.15.15,0,0,0,0-.11.21.21,0,0,0-.15,0h-.28Z"/><line class="cls-5" x1="624.97" y1="154.43" x2="565.56" y2="154.43"/><polygon class="cls-6" points="623.98 153.59 624.83 154.43 623.98 155.28 624.7 155.28 625.54 154.43 624.7 153.59 623.98 153.59"/><polygon class="cls-6" points="566.56 153.59 565.71 154.43 566.56 155.28 565.84 155.28 564.99 154.43 565.84 153.59 566.56 153.59"/><path class="cls-3" d="M567.94,283.85h6.26v1.28h-4.71V288h4.59v1.24H569.5V293h4.75v1.29h-6.3V283.85Zm11.18,3.74a2.36,2.36,0,0,1,2.66,2.62v.07h0v4h-1.45v-4h0c0-1.08-.58-1.55-1.6-1.55a1.68,1.68,0,0,0-1.74,1.55v4h-1.44v-6.42H577v.68a2.83,2.83,0,0,1,2.12-1Zm25.6,0a2.36,2.36,0,0,1,2.66,2.61s0,0,0,.07h0v4h-1.45v-4h0c0-1.08-.58-1.55-1.6-1.55a1.68,1.68,0,0,0-1.74,1.55v4h-1.44v-6.42h1.44v.68a2.83,2.83,0,0,1,2.12-1Zm-16.09,1.2h3v0H593v0c-.12,3.68-2.37,5.56-5.24,5.56a5.42,5.42,0,0,1,0-10.83,4.88,4.88,0,0,1,4.5,2.07l-1,.84a3.45,3.45,0,0,0-3.51-1.64,3.93,3.93,0,0,0-3.84,4.09,4,4,0,0,0,3.85,4.08,3.48,3.48,0,0,0,3.66-2.9h-2.82v-1.26Zm6.42,1.33H599a1.77,1.77,0,0,0-1.88-1.54,2.19,2.19,0,0,0-2.06,1.54Zm5.27,1v0H595a2.17,2.17,0,0,0,2.11,2,2.35,2.35,0,0,0,2.13-1.25l1.25.65c-.45,1.18-2.05,1.86-3.5,1.86a3.46,3.46,0,0,1-3.45-3.49A3.33,3.33,0,0,1,597,287.4a3.2,3.2,0,0,1,3.43,3.65h-.12Zm8.73-3.27h1.55v6.46h-1.55V287.8Zm.77-2.69a.76.76,0,1,1-.76.76.76.76,0,0,1,.76-.76Zm8.53,6.14c.12,2.1-1.11,3-3.07,3s-2.93-1-3.08-2.46l0-.5h0v-3.57h1.48v4.1a1.6,1.6,0,0,0,1.69,1.28,1.47,1.47,0,0,0,1.52-1.4v-4.07h1.48v3.63Zm3.47-3.88a2.23,2.23,0,0,1,2,1.18l-1.23.58a.87.87,0,0,0-.77-.59.74.74,0,0,0-.81.68c0,.32.51.6.86.7s1,.38,1.46.64h0a1.66,1.66,0,0,1,1,1.67,2.39,2.39,0,0,1-2.58,2,2.52,2.52,0,0,1-2.46-1.49l1.31-.54h0a1.21,1.21,0,0,0,.94.8c.57.12,1.11,0,1.25-.72s-.77-.74-1.34-1.14a5.18,5.18,0,0,1-1.13-.57,1.38,1.38,0,0,1-.75-1.35A2,2,0,0,1,621.82,287.38Z"/><path class="cls-3" d="M609.82,279.7a6.63,6.63,0,0,1,5,2.25l-.35.33a6.14,6.14,0,0,0-9.32.06l-.38-.28a6.76,6.76,0,0,1,5.08-2.35Zm0,3.3a2.62,2.62,0,0,1,2.25,1.28l-.35.3h0a2.14,2.14,0,0,0-3.79,0l-.37-.3a2.62,2.62,0,0,1,2.28-1.34Zm0-1.64a4.56,4.56,0,0,0-3.64,1.84l.35.28a4.13,4.13,0,0,1,3.29-1.65,4,4,0,0,1,3.2,1.64l.37-.32A4.51,4.51,0,0,0,609.82,281.36Z"/><path class="cls-4" d="M625.12,287.35h0a.82.82,0,0,1,.82.82h0a.82.82,0,0,1-.82.82h0a.82.82,0,0,1-.82-.82h0a.82.82,0,0,1,.82-.82h0Zm0,.14h0a.69.69,0,0,0-.68.68h0a.69.69,0,0,0,.68.68h0a.69.69,0,0,0,.68-.68h0a.69.69,0,0,0-.68-.68Z"/><path class="cls-4" d="M624.75,288.65v-1h.4a.51.51,0,0,1,.18,0,.21.21,0,0,1,.1.09.28.28,0,0,1,0,.14.25.25,0,0,1-.06.17.3.3,0,0,1-.19.09l.07,0a.62.62,0,0,1,.1.13l.16.26h-.15l-.12-.2-.09-.13-.06-.06-.05,0h-.2v.43Zm.12-.54h.26l.13,0a.14.14,0,0,0,.07-.06.16.16,0,0,0,0-.09.15.15,0,0,0,0-.11.21.21,0,0,0-.15,0h-.28Z"/><line class="cls-5" x1="624.97" y1="302.66" x2="565.56" y2="302.66"/><polygon class="cls-6" points="623.98 301.81 624.83 302.66 623.98 303.5 624.7 303.5 625.54 302.66 624.7 301.81 623.98 301.81"/><polygon class="cls-6" points="566.56 301.81 565.71 302.66 566.56 303.5 565.84 303.5 564.99 302.66 565.84 301.81 566.56 301.81"/><path class="cls-3" d="M114.64,252.46h32.28V259H122.66v14.6h23.64V280H122.67v19.53h24.47v6.64H114.67l0-53.72Zm57.62,19.29c7.69,0,13.76,3.5,13.7,13.48,0,.13,0,.25,0,.37h0v20.69h-7.47V285.6h.07c.21-5.59-3-8-8.26-8-8,0-8.59,6.86-9,8v20.69h-7.4l0-33.1h7.4v3.52a14.6,14.6,0,0,1,10.94-5Zm132-.13c7.69,0,13.77,3.5,13.7,13.48,0,.13,0,.25,0,.37h0v20.69H310.5V285.47h.07c.21-5.59-3-8-8.26-8-8,0-8.59,6.87-9,8v20.69h-7.4l0-33.11h7.4v3.53a14.58,14.58,0,0,1,10.94-5Zm-82.93,6.16h15.46s0-.07,0-.11H244s0,.06,0,.09c-.61,19-12.24,28.65-27,28.66s-26.84-12.53-26.85-27.91,11.22-27.51,26.82-27.94c10-.27,18.51,3.18,23.2,10.66l-5.1,4.33c-3.21-6.09-10-9.08-18.07-8.45-12.15.94-19.81,9.47-19.81,21.06s8.91,21,19.83,21c9.1,0,16.3-4.35,18.88-14.94H221.33v-6.49Zm33.12,6.85h20.3c-1.26-5.49-4.7-8-9.67-8a11.28,11.28,0,0,0-10.63,8Zm27.17,5.08v.13H254c.71,5.66,5.2,10.15,10.85,10.15,4.44,0,9.39-2.49,11-6.44l6.43,3.34c-2.31,6.1-10.58,9.59-18,9.59a17.86,17.86,0,0,1-17.8-18c0-9.8,7.12-17.9,18.1-17.7s18.21,6.52,17.7,18.83l0,.06Zm45-16.86h8l0,33.31h-8l0-33.31Zm4-13.85a3.92,3.92,0,1,1-3.92,3.93,3.92,3.92,0,0,1,3.92-3.93Zm44,31.67c.62,10.83-5.7,15.47-15.83,15.48-10.7,0-15.09-5.39-15.88-12.7l-.14-2.57h0s0,0,0,0v-18.4h7.62v4.65l.07,13.59v2.91c0,2.82,3.5,6.59,8.7,6.58A7.56,7.56,0,0,0,367,293V272h7.62v18.72Zm17.87-20c4.77,0,8.87,2.51,10.53,6.07l-6.34,3a4.49,4.49,0,0,0-4-3,3.79,3.79,0,0,0-4.2,3.51c0,1.66,2.6,3.07,4.44,3.6,1.07.42,5,2,7.54,3.28l0,0c3.39,1.62,5.62,4.48,5.35,8.61-.84,6.26-6.07,10.38-13.28,10.38-6.05,0-11.17-3.27-12.66-7.67l6.74-2.8,0,0a6.24,6.24,0,0,0,4.83,4.12c2.93.61,5.71,0,6.43-3.73,1-3.73-4-3.81-6.89-5.9a26.71,26.71,0,0,1-5.83-2.94c-3.07-1.7-3.88-4.11-3.88-6.94C381.24,275,386.2,270.7,392.44,270.69Z"/><path class="cls-3" d="M330.58,231.08a34.2,34.2,0,0,1,25.59,11.61l-1.81,1.69a31.65,31.65,0,0,0-48,.29l-2-1.46a34.87,34.87,0,0,1,26.2-12.13Zm0,17a13.49,13.49,0,0,1,11.59,6.6l-1.78,1.52-.09.06a11.05,11.05,0,0,0-19.56.25l-1.9-1.56a13.48,13.48,0,0,1,11.73-6.88Zm0-8.44a23.5,23.5,0,0,0-18.78,9.48l1.8,1.46a21.29,21.29,0,0,1,17-8.53,20.52,20.52,0,0,1,16.48,8.46l1.92-1.64A23.27,23.27,0,0,0,330.58,239.63Z"/><path class="cls-4" d="M409.43,270.52h0a4.23,4.23,0,0,1,4.24,4.24h0a4.23,4.23,0,0,1-4.24,4.24h0a4.23,4.23,0,0,1-4.24-4.24h0a4.24,4.24,0,0,1,4.24-4.24h0Zm0,.71h0a3.55,3.55,0,0,0-3.53,3.53h0a3.54,3.54,0,0,0,3.53,3.53h0a3.54,3.54,0,0,0,3.53-3.53h0a3.54,3.54,0,0,0-3.53-3.53Z"/><path class="cls-4" d="M407.56,277.24v-5h2.05a2.61,2.61,0,0,1,.94.13,1.06,1.06,0,0,1,.52.47,1.47,1.47,0,0,1,.19.75,1.29,1.29,0,0,1-.32.89,1.56,1.56,0,0,1-1,.46,1.57,1.57,0,0,1,.37.25,3.2,3.2,0,0,1,.51.66l.81,1.35h-.77l-.61-1q-.27-.45-.44-.68a1.54,1.54,0,0,0-.31-.33,1,1,0,0,0-.28-.13,1.75,1.75,0,0,0-.34,0h-.71v2.2Zm.61-2.77h1.32a1.85,1.85,0,0,0,.66-.09.73.73,0,0,0,.36-.3.84.84,0,0,0,.12-.44.77.77,0,0,0-.24-.58,1.07,1.07,0,0,0-.75-.22h-1.47Z"/><g class="cls-7"><line class="cls-8" x1="63.27" y1="188.29" x2="63.27" y2="351.26"/><line class="cls-8" x1="71.83" y1="188.74" x2="71.83" y2="351.08"/><line class="cls-8" x1="80.39" y1="188.74" x2="80.39" y2="351.08"/><line class="cls-8" x1="88.96" y1="188.74" x2="88.96" y2="351.08"/><line class="cls-8" x1="97.52" y1="188.74" x2="97.52" y2="351.08"/><line class="cls-8" x1="106.08" y1="188.74" x2="106.08" y2="351.08"/><line class="cls-8" x1="114.64" y1="188.74" x2="114.64" y2="351.08"/><line class="cls-8" x1="123.21" y1="188.74" x2="123.21" y2="351.08"/><line class="cls-8" x1="131.77" y1="188.74" x2="131.77" y2="351.08"/><line class="cls-8" x1="140.33" y1="188.74" x2="140.33" y2="351.08"/><line class="cls-8" x1="148.89" y1="188.74" x2="148.89" y2="351.08"/><line class="cls-8" x1="157.46" y1="188.74" x2="157.46" y2="351.08"/><line class="cls-8" x1="166.02" y1="188.74" x2="166.02" y2="351.08"/><line class="cls-8" x1="174.58" y1="188.74" x2="174.58" y2="351.08"/><line class="cls-8" x1="183.14" y1="188.74" x2="183.14" y2="351.08"/><line class="cls-8" x1="191.7" y1="188.74" x2="191.7" y2="351.08"/><line class="cls-8" x1="200.27" y1="188.74" x2="200.27" y2="351.08"/><line class="cls-8" x1="208.83" y1="188.74" x2="208.83" y2="351.08"/><line class="cls-8" x1="217.39" y1="188.74" x2="217.39" y2="351.08"/><line class="cls-8" x1="225.95" y1="188.74" x2="225.95" y2="351.08"/><line class="cls-8" x1="234.52" y1="188.74" x2="234.52" y2="351.08"/><line class="cls-8" x1="243.08" y1="188.74" x2="243.08" y2="351.08"/><line class="cls-8" x1="251.64" y1="188.74" x2="251.64" y2="351.08"/><line class="cls-8" x1="260.2" y1="188.74" x2="260.2" y2="351.08"/><line class="cls-8" x1="268.77" y1="188.74" x2="268.77" y2="351.08"/><line class="cls-8" x1="277.33" y1="188.74" x2="277.33" y2="351.08"/><line class="cls-8" x1="285.89" y1="188.74" x2="285.89" y2="351.08"/><line class="cls-8" x1="294.45" y1="188.74" x2="294.45" y2="351.08"/><line class="cls-8" x1="303.02" y1="188.74" x2="303.02" y2="351.08"/><line class="cls-8" x1="311.58" y1="188.74" x2="311.58" y2="351.08"/><line class="cls-8" x1="320.14" y1="188.74" x2="320.14" y2="351.08"/><line class="cls-8" x1="328.7" y1="188.74" x2="328.7" y2="351.08"/><line class="cls-8" x1="337.26" y1="188.74" x2="337.26" y2="351.08"/><line class="cls-8" x1="345.83" y1="188.74" x2="345.83" y2="351.08"/><line class="cls-8" x1="354.39" y1="188.74" x2="354.39" y2="351.08"/><line class="cls-8" x1="362.95" y1="188.74" x2="362.95" y2="351.08"/><line class="cls-8" x1="371.51" y1="188.74" x2="371.51" y2="351.08"/><line class="cls-8" x1="380.08" y1="188.74" x2="380.08" y2="351.08"/><line class="cls-8" x1="388.64" y1="188.74" x2="388.64" y2="351.08"/><line class="cls-8" x1="397.2" y1="188.74" x2="397.2" y2="351.08"/><line class="cls-8" x1="405.76" y1="188.74" x2="405.76" y2="351.08"/><line class="cls-8" x1="414.33" y1="188.74" x2="414.33" y2="351.08"/><line class="cls-8" x1="422.89" y1="188.74" x2="422.89" y2="351.08"/><line class="cls-8" x1="431.45" y1="188.74" x2="431.45" y2="351.08"/><line class="cls-8" x1="440.01" y1="188.74" x2="440.01" y2="351.08"/><line class="cls-8" x1="448.58" y1="188.74" x2="448.58" y2="351.08"/><line class="cls-8" x1="457.27" y1="188.43" x2="63.27" y2="188.43"/><line class="cls-8" x1="457.27" y1="196.99" x2="63.53" y2="196.99"/><line class="cls-8" x1="457.27" y1="205.55" x2="63.53" y2="205.55"/><line class="cls-8" x1="457.27" y1="214.12" x2="63.53" y2="214.12"/><line class="cls-8" x1="457.27" y1="222.68" x2="63.53" y2="222.68"/><line class="cls-8" x1="457.27" y1="231.24" x2="63.53" y2="231.24"/><line class="cls-8" x1="457.27" y1="239.8" x2="63.53" y2="239.8"/><line class="cls-8" x1="457.27" y1="248.37" x2="63.53" y2="248.37"/><line class="cls-8" x1="457.27" y1="256.93" x2="63.53" y2="256.93"/><line class="cls-8" x1="457.27" y1="265.49" x2="63.53" y2="265.49"/><line class="cls-8" x1="457.27" y1="274.05" x2="63.53" y2="274.05"/><line class="cls-8" x1="457.27" y1="282.62" x2="63.53" y2="282.62"/><line class="cls-8" x1="457.27" y1="291.18" x2="63.53" y2="291.18"/><line class="cls-8" x1="457.27" y1="299.74" x2="63.53" y2="299.74"/><line class="cls-8" x1="457.27" y1="308.3" x2="63.53" y2="308.3"/><line class="cls-8" x1="457.27" y1="316.87" x2="63.53" y2="316.87"/><line class="cls-8" x1="457.27" y1="325.43" x2="63.53" y2="325.43"/><line class="cls-8" x1="457.27" y1="333.99" x2="63.53" y2="333.99"/><line class="cls-8" x1="457.27" y1="342.55" x2="63.53" y2="342.55"/><line class="cls-8" x1="457.27" y1="351.11" x2="63.53" y2="351.11"/><line class="cls-8" x1="457.27" y1="188.29" x2="457.27" y2="351.26"/></g><text class="cls-9" transform="translate(25.7 31.1)">Logo</text><line class="cls-5" x1="25.7" y1="42.43" x2="725.03" y2="42.43"/><text class="cls-10" transform="translate(555.53 170.44)">Digital : 60<tspan class="cls-11" x="45.43" y="0">p</tspan><tspan x="50.9" y="0">x width</tspan></text><text class="cls-10" transform="translate(555.53 317.16)">Print : 22mm width</text></svg>